<svg xmlns="http://www.w3.org/2000/svg" xmlns:xlink="http://www.w3.org/1999/xlink"><symbol viewBox="0 0 451.847 451.847" id="icon-arrow-down" xmlns="http://www.w3.org/2000/svg"><path d="M225.923 354.706c-8.098 0-16.195-3.092-22.369-9.263L9.27 151.157c-12.359-12.359-12.359-32.397 0-44.751 12.354-12.354 32.388-12.354 44.748 0l171.905 171.915 171.906-171.909c12.359-12.354 32.391-12.354 44.744 0 12.365 12.354 12.365 32.392 0 44.751L248.292 345.449c-6.177 6.172-14.274 9.257-22.369 9.257z"/></symbol><symbol viewBox="0 0 28 28" id="icon-camera" xmlns="http://www.w3.org/2000/svg"><path d="M14.5 13c0-.281-.219-.5-.5-.5a2.507 2.507 0 0 0-2.5 2.5c0 .281.219.5.5.5s.5-.219.5-.5a1.5 1.5 0 0 1 1.5-1.5c.281 0 .5-.219.5-.5zm3.5 2.031c0 2.203-1.797 4-4 4s-4-1.797-4-4 1.797-4 4-4 4 1.797 4 4zM2 24h24v-2H2v2zm18-8.969c0-3.313-2.688-6-6-6s-6 2.688-6 6 2.688 6 6 6 6-2.688 6-6zM4 5h6V3H4v2zM2 8h24V4H13.062l-1 2H1.999v2zm26-4v20c0 1.109-.891 2-2 2H2c-1.109 0-2-.891-2-2V4c0-1.109.891-2 2-2h24c1.109 0 2 .891 2 2z"/></symbol><symbol viewBox="0 -256 1856 1792" id="icon-code" xmlns="http://www.w3.org/2000/svg"><path d="M585 1143l-50 50q-10 10-23 10t-23-10L23 727q-10-10-10-23t10-23l466-466q10-10 23-10t23 10l50 50q10 10 10 23t-10 23L192 704l393 393q10 10 10 23t-10 23zM1176 76L803 1367q-4 13-15.5 19.5T764 1389l-62-17q-13-4-19.5-15.5T680 1332L1053 41q4-13 15.5-19.5T1092 19l62 17q13 4 19.5 15.5T1176 76zm657 651l-466 466q-10 10-23 10t-23-10l-50-50q-10-10-10-23t10-23l393-393-393-393q-10-10-10-23t10-23l50-50q10-10 23-10t23 10l466 466q10 10 10 23t-10 23z"/></symbol><symbol viewBox="0 0 1920 1792" id="icon-desktop" xmlns="http://www.w3.org/2000/svg"><path d="M1792 992V160q0-13-9.5-22.5T1760 128H160q-13 0-22.5 9.5T128 160v832q0 13 9.5 22.5t22.5 9.5h1600q13 0 22.5-9.5t9.5-22.5zm128-832v1088q0 66-47 113t-113 47h-544q0 37 16 77.5t32 71 16 43.5q0 26-19 45t-45 19H704q-26 0-45-19t-19-45q0-14 16-44t32-70 16-78H160q-66 0-113-47T0 1248V160Q0 94 47 47T160 0h1600q66 0 113 47t47 113z"/></symbol><symbol viewBox="0 0 896 1664" id="icon-facebook" xmlns="http://www.w3.org/2000/svg"><path d="M895 12v264H738q-86 0-116 36t-30 108v189h293l-39 296H592v759H286V905H31V609h255V391q0-186 104-288.5T667 0q147 0 228 12z"/></symbol><symbol viewBox="0 0 2304 1472" id="icon-google-plus" xmlns="http://www.w3.org/2000/svg"><path d="M1437 753q0 208-87 370.5t-248 254-369 91.5q-149 0-285-58t-234-156-156-234T0 736t58-285 156-234T448 61 733 3q286 0 491 192l-199 191Q908 273 733 273q-123 0-227.5 62T340 503.5 279 736t61 232.5T505.5 1137t227.5 62q83 0 152.5-23t114.5-57.5 78.5-78.5 49-83 21.5-74H733V631h692q12 63 12 122zm867-122v210h-209v209h-210V841h-209V631h209V422h210v209h209z"/></symbol><symbol preserveAspectRatio="xMidYMin slice" viewBox="0 0 1536 1536" id="icon-instagram" xmlns="http://www.w3.org/2000/svg"><path d="M1024 768q0-106-75-181t-181-75-181 75-75 181 75 181 181 75 181-75 75-181zm138 0q0 164-115 279t-279 115-279-115-115-279 115-279 279-115 279 115 115 279zm108-410q0 38-27 65t-65 27-65-27-27-65 27-65 65-27 65 27 27 65zM768 138q-7 0-76.5-.5t-105.5 0-96.5 3-103 10T315 169q-50 20-88 58t-58 88q-11 29-18.5 71.5t-10 103-3 96.5 0 105.5.5 76.5-.5 76.5 0 105.5 3 96.5 10 103T169 1221q20 50 58 88t88 58q29 11 71.5 18.5t103 10 96.5 3 105.5 0 76.5-.5 76.5.5 105.5 0 96.5-3 103-10 71.5-18.5q50-20 88-58t58-88q11-29 18.5-71.5t10-103 3-96.5 0-105.5-.5-76.5.5-76.5 0-105.5-3-96.5-10-103T1367 315q-20-50-58-88t-88-58q-29-11-71.5-18.5t-103-10-96.5-3-105.5 0-76.5.5zm768 630q0 229-5 317-10 208-124 322t-322 124q-88 5-317 5t-317-5q-208-10-322-124T5 1085q-5-88-5-317t5-317q10-208 124-322T451 5q88-5 317-5t317 5q208 10 322 124t124 322q5 88 5 317z"/></symbol><symbol viewBox="0 0 1728 1280" id="icon-long-arrow-right" xmlns="http://www.w3.org/2000/svg"><path d="M0 544v192q0 14 9 23t23 9h1248v224q0 21 19 29t35-5l384-350q10-10 10-23 0-14-10-24l-384-354q-16-14-35-6-19 9-19 29v224H32q-14 0-23 9t-9 23z"/></symbol><symbol viewBox="0 0 512 512" id="icon-menu" xmlns="http://www.w3.org/2000/svg"><path d="M491.318 235.318H20.682C9.26 235.318 0 244.577 0 256s9.26 20.682 20.682 20.682h470.636c11.423 0 20.682-9.259 20.682-20.682 0-11.422-9.259-20.682-20.682-20.682zm0-156.879H20.682C9.26 78.439 0 87.699 0 99.121c0 11.422 9.26 20.682 20.682 20.682h470.636c11.423 0 20.682-9.26 20.682-20.682 0-11.422-9.259-20.682-20.682-20.682zm0 313.758H20.682C9.26 392.197 0 401.456 0 412.879s9.26 20.682 20.682 20.682h470.636c11.423 0 20.682-9.259 20.682-20.682s-9.259-20.682-20.682-20.682z"/></symbol><symbol viewBox="0 -192 2304 1792" id="icon-mixcloud" xmlns="http://www.w3.org/2000/svg"><path d="M1645 906q0-59-34-106.5t-87-68.5q-7 45-23 92-7 24-27.5 38t-44.5 14q-12 0-24-3-31-10-45-38.5t-4-58.5q23-71 23-143 0-123-61-227.5T1152 239t-228-61q-134 0-247 73T510 445q108 28 188 106 22 23 22 55t-22 54-54 22-55-22q-75-75-180-75-106 0-181 74.5T153 840t75 180.5 181 74.5h1046q79 0 134.5-55.5T1645 906zm153 0q0 142-100.5 242T1455 1248H409q-169 0-289-119.5T0 840q0-153 100-267t249-136q62-184 221-298T924 25q235 0 408.5 158.5T1529 573q116 25 192.5 118.5T1798 906zm250 0q0 175-97 319-23 33-64 33-24 0-43-13-26-17-32-48.5t12-57.5q71-104 71-233t-71-233q-18-26-12-57t32-49 57.5-11.5T1951 588q97 142 97 318zm256 0q0 244-134 443-23 34-64 34-23 0-42-13-26-18-32.5-49t11.5-57q108-164 108-358 0-195-108-357-18-26-11.5-57.5T2064 443q26-18 57-12t49 33q134 198 134 442z"/></symbol><symbol viewBox="0 0 1408 1600" id="icon-play" xmlns="http://www.w3.org/2000/svg"><path d="M1384 831L56 1569q-23 13-39.5 3T0 1536V64q0-26 16.5-36T56 31l1328 738q23 13 23 31t-23 31z"/></symbol><symbol viewBox="0 -128 1152 1792" id="icon-tablet" xmlns="http://www.w3.org/2000/svg"><path d="M640 1280q0-26-19-45t-45-19-45 19-19 45 19 45 45 19 45-19 19-45zm384-160V160q0-13-9.5-22.5T992 128H160q-13 0-22.5 9.5T128 160v960q0 13 9.5 22.5t22.5 9.5h832q13 0 22.5-9.5t9.5-22.5zm128-960v1088q0 66-47 113t-113 47H160q-66 0-113-47T0 1248V160Q0 94 47 47T160 0h832q66 0 113 47t47 113z"/></symbol><symbol viewBox="0 0 36 28" id="icon-tripadvisor" xmlns="http://www.w3.org/2000/svg"><path d="M10.172 15.578c0 .812-.656 1.469-1.453 1.469a1.467 1.467 0 0 1-1.469-1.469 1.46 1.46 0 1 1 2.922 0zm18.031-.015c0 .812-.656 1.469-1.469 1.469s-1.469-.656-1.469-1.469.656-1.453 1.469-1.453 1.469.641 1.469 1.453zm-16.25.015a3.028 3.028 0 0 0-3.016-3.016 3.018 3.018 0 0 0-3.016 3.016 3.008 3.008 0 0 0 3.016 3.016 3.018 3.018 0 0 0 3.016-3.016zm18.016-.015a3.018 3.018 0 0 0-3.016-3.016 3.028 3.028 0 0 0-3.016 3.016 3.018 3.018 0 0 0 3.016 3.016 3.008 3.008 0 0 0 3.016-3.016zm-16.688.015c0 2.406-1.937 4.359-4.344 4.359s-4.359-1.953-4.359-4.359c0-2.391 1.953-4.344 4.359-4.344s4.344 1.953 4.344 4.344zm18.032-.015a4.348 4.348 0 0 1-4.359 4.344 4.344 4.344 0 0 1 0-8.688 4.347 4.347 0 0 1 4.359 4.344zm-15.063.046A7.222 7.222 0 0 0 9.031 8.39c-3.969 0-7.203 3.234-7.203 7.219s3.234 7.219 7.203 7.219a7.222 7.222 0 0 0 7.219-7.219zm10.438-8.953c-2.578-1.125-5.484-1.734-8.687-1.734s-6.391.609-8.953 1.719c4.953.016 8.953 4.016 8.953 8.969a8.95 8.95 0 0 1 8.687-8.953zm7.484 8.953c0-3.984-3.219-7.219-7.203-7.219s-7.219 3.234-7.219 7.219 3.234 7.219 7.219 7.219 7.203-3.234 7.203-7.219zm-4.156-8.843H36c-.938 1.094-1.625 2.562-1.797 3.578a8.921 8.921 0 0 1 1.719 5.266c0 4.953-4.016 8.953-8.953 8.953a8.927 8.927 0 0 1-6.953-3.297s-.734.875-2.016 2.797c-.219-.453-1.328-2.031-2-2.812a8.927 8.927 0 0 1-6.969 3.313c-4.937 0-8.953-4-8.953-8.953 0-1.969.641-3.781 1.719-5.266C1.625 9.329.938 7.861 0 6.767h5.703C8.766 4.72 13.219 3.439 18 3.439s8.953 1.281 12.016 3.328z"/></symbol><symbol viewBox="0 0 1600 1280" id="icon-twitter" xmlns="http://www.w3.org/2000/svg"><path d="M1588 152q-67 98-162 167 1 14 1 42 0 130-38 259.5T1273.5 869 1089 1079.5t-258 146-323 54.5q-271 0-496-145 35 4 78 4 225 0 401-138-105-2-188-64.5T189 777q33 5 61 5 43 0 85-11-112-23-185.5-111.5T76 454v-4q68 38 146 41-66-44-105-115T78 222q0-88 44-163 121 149 294.5 238.5T788 397q-8-38-8-74 0-134 94.5-228.5T1103 0q140 0 236 102 109-21 205-78-37 115-142 178 93-10 186-50z"/></symbol></svg>